<svg xmlns="http://www.w3.org/2000/svg" viewBox="0 0 16.1 16" fill="#231f20"><path d="M11.8 1C13.6 1 15 2.4 15 4.2v7.7a3.12 3.12 0 01-3.1 3.1H4.2C2.4 15 1 13.6 1 11.8V4.2C1 2.4 2.4 1 4.2 1h7.6m0-1H4.2A4.23 4.23 0 000 4.2v7.7C0 14.1 1.9 16 4.2 16h7.7a4.23 4.23 0 004.2-4.2V4.2C16 1.9 14.1 0 11.8 0zM8 4.9A3.12 3.12 0 0111.1 8 3.12 3.12 0 018 11.1 3.12 3.12 0 014.9 8 3.12 3.12 0 018 4.9m0-1C5.7 3.9 3.9 5.7 3.9 8s1.8 4.1 4.1 4.1 4.1-1.8 4.1-4.1S10.3 3.9 8 3.9z"/><circle cx="12.3" cy="3.7" r=".9"/></svg>